<svg width="299" height="156" viewBox="0 0 299 156" fill="none" xmlns="http://www.w3.org/2000/svg">
<g filter="url(#filter0_f)">
<path d="M51 51H247.8V88L229.5 105H51V51Z" fill="#ED1C24" fill-opacity="0.76"/>
<path d="M51.675 51.675H247.125V87.7057L229.235 104.325H51.675V51.675Z" stroke="white" stroke-opacity="0.22" stroke-width="1.35"/>
</g>
<path d="M17.5 60.5H260.5V96.7499L238.144 113.5H17.5V60.5Z" stroke="white" stroke-opacity="0.22"/>
<path d="M28 51H272V88L249.311 105H28V51Z" fill="#ED1C24"/>
<path d="M28.675 51.675H271.325V87.6623L249.086 104.325H28.675V51.675Z" stroke="white" stroke-opacity="0.22" stroke-width="1.35"/>
<path d="M94.32 79.555C94.98 79.03 95.31 78.325 95.31 77.455C95.31 76.6 94.995 75.895 94.38 75.34C93.765 74.785 93.015 74.5 92.115 74.5H87.975V85H92.43C93.345 85 94.125 84.715 94.755 84.145C95.385 83.575 95.7 82.84 95.7 81.955C95.7 80.89 95.235 80.08 94.32 79.555ZM92.115 76.435C92.775 76.435 93.24 76.93 93.24 77.59C93.24 78.25 92.76 78.745 92.115 78.745H90.045V76.435H92.115ZM90.045 83.065V80.59H92.43C93.135 80.59 93.645 81.115 93.645 81.82C93.645 82.54 93.135 83.065 92.43 83.065H90.045ZM99.457 85H101.527V74.5H99.457V85ZM113.941 74.5H107.011V79.465C107.011 81.025 106.726 82.21 106.141 83.02H105.121V87.01H107.191V85H112.996V87.01H115.066V83.02H113.941V74.5ZM108.361 83.02C108.841 82.195 109.081 81.01 109.081 79.495V76.435H111.871V83.02H108.361ZM118.847 74.5V85H120.917V76.48H124.622V85H126.692V74.5H118.847ZM131.047 74.5V85H133.117V81.55H134.962C135.967 81.55 136.822 81.205 137.512 80.53C138.202 79.855 138.547 79.015 138.547 78.025C138.547 77.035 138.202 76.195 137.512 75.52C136.822 74.845 135.967 74.5 134.962 74.5H131.047ZM133.117 79.615V76.435H134.962C135.847 76.435 136.492 77.11 136.492 78.025C136.492 78.925 135.847 79.615 134.962 79.615H133.117ZM150.225 85L146.535 74.5H143.97L140.295 85H142.53L143.16 83.11H147.345L147.975 85H150.225ZM145.26 76.885L146.7 81.175H143.82L145.26 76.885ZM159.99 79.555C160.65 79.03 160.98 78.325 160.98 77.455C160.98 76.6 160.665 75.895 160.05 75.34C159.435 74.785 158.685 74.5 157.785 74.5H153.645V85H158.1C159.015 85 159.795 84.715 160.425 84.145C161.055 83.575 161.37 82.84 161.37 81.955C161.37 80.89 160.905 80.08 159.99 79.555ZM157.785 76.435C158.445 76.435 158.91 76.93 158.91 77.59C158.91 78.25 158.43 78.745 157.785 78.745H155.715V76.435H157.785ZM155.715 83.065V80.59H158.1C158.805 80.59 159.315 81.115 159.315 81.82C159.315 82.54 158.805 83.065 158.1 83.065H155.715ZM173.272 85V74.5H171.697L167.197 80.92V74.5H165.127V85H166.702L171.202 78.595V85H173.272ZM176.839 74.5V76.48H179.659V85H181.729V76.48H184.564V74.5H176.839ZM196.265 85V74.5H194.69L190.19 80.92V74.5H188.12V85H189.695L194.195 78.595V85H196.265Z" fill="white"/>
<path d="M94.32 79.555L93.4796 78.4985L91.9234 79.7364L93.6481 80.7259L94.32 79.555ZM94.38 75.34L93.4755 76.3422L93.4755 76.3422L94.38 75.34ZM87.975 74.5V73.15H86.625V74.5H87.975ZM87.975 85H86.625V86.35H87.975V85ZM90.045 78.745H88.695V80.095H90.045V78.745ZM90.045 76.435V75.085H88.695V76.435H90.045ZM90.045 83.065H88.695V84.415H90.045V83.065ZM90.045 80.59V79.24H88.695V80.59H90.045ZM95.1604 80.6115C96.1572 79.8186 96.66 78.7171 96.66 77.455H93.96C93.96 77.9329 93.8028 78.2414 93.4796 78.4985L95.1604 80.6115ZM96.66 77.455C96.66 76.223 96.1868 75.1521 95.2845 74.3378L93.4755 76.3422C93.8032 76.6379 93.96 76.977 93.96 77.455H96.66ZM95.2845 74.3378C94.4073 73.5462 93.3297 73.15 92.115 73.15V75.85C92.7003 75.85 93.1227 76.0238 93.4755 76.3422L95.2845 74.3378ZM92.115 73.15H87.975V75.85H92.115V73.15ZM86.625 74.5V85H89.325V74.5H86.625ZM87.975 86.35H92.43V83.65H87.975V86.35ZM92.43 86.35C93.6485 86.35 94.7603 85.9607 95.6607 85.1461L93.8493 83.1439C93.4897 83.4693 93.0415 83.65 92.43 83.65V86.35ZM95.6607 85.1461C96.5894 84.3059 97.05 83.1997 97.05 81.955H94.35C94.35 82.4803 94.1806 82.8441 93.8493 83.1439L95.6607 85.1461ZM97.05 81.955C97.05 80.4132 96.3322 79.1531 94.9919 78.3841L93.6481 80.7259C94.1378 81.0069 94.35 81.3668 94.35 81.955H97.05ZM92.115 77.785C92.1097 77.785 92.0856 77.7836 92.0509 77.7692C92.0163 77.7548 91.9819 77.7318 91.9529 77.7018C91.8907 77.6372 91.89 77.5817 91.89 77.59H94.59C94.59 76.232 93.5673 75.085 92.115 75.085V77.785ZM91.89 77.59C91.89 77.5905 91.8901 77.5762 91.8996 77.5523C91.909 77.5286 91.9256 77.5005 91.9517 77.4737C92.0103 77.4135 92.0803 77.395 92.115 77.395V80.095C93.5405 80.095 94.59 78.9602 94.59 77.59H91.89ZM92.115 77.395H90.045V80.095H92.115V77.395ZM91.395 78.745V76.435H88.695V78.745H91.395ZM90.045 77.785H92.115V75.085H90.045V77.785ZM91.395 83.065V80.59H88.695V83.065H91.395ZM90.045 81.94H92.43V79.24H90.045V81.94ZM92.43 81.94C92.4373 81.94 92.4269 81.941 92.4053 81.9322C92.3838 81.9234 92.3601 81.9083 92.3391 81.887C92.3182 81.8657 92.3058 81.8441 92.2994 81.828C92.2929 81.8118 92.295 81.8074 92.295 81.82H94.995C94.995 80.3915 93.9024 79.24 92.43 79.24V81.94ZM92.295 81.82C92.295 81.8399 92.2917 81.8402 92.297 81.8267C92.3023 81.8131 92.3139 81.792 92.3351 81.7703C92.3564 81.7484 92.3809 81.7326 92.4036 81.7233C92.4262 81.714 92.4374 81.715 92.43 81.715V84.415C93.9131 84.415 94.995 83.2526 94.995 81.82H92.295ZM92.43 81.715H90.045V84.415H92.43V81.715ZM99.457 85H98.107V86.35H99.457V85ZM101.527 85V86.35H102.877V85H101.527ZM101.527 74.5H102.877V73.15H101.527V74.5ZM99.457 74.5V73.15H98.107V74.5H99.457ZM99.457 86.35H101.527V83.65H99.457V86.35ZM102.877 85V74.5H100.177V85H102.877ZM101.527 73.15H99.457V75.85H101.527V73.15ZM98.107 74.5V85H100.807V74.5H98.107ZM113.941 74.5H115.291V73.15H113.941V74.5ZM107.011 74.5V73.15H105.661V74.5H107.011ZM106.141 83.02V84.37H106.831L107.235 83.8104L106.141 83.02ZM105.121 83.02V81.67H103.771V83.02H105.121ZM105.121 87.01H103.771V88.36H105.121V87.01ZM107.191 87.01V88.36H108.541V87.01H107.191ZM107.191 85V83.65H105.841V85H107.191ZM112.996 85H114.346V83.65H112.996V85ZM112.996 87.01H111.646V88.36H112.996V87.01ZM115.066 87.01V88.36H116.416V87.01H115.066ZM115.066 83.02H116.416V81.67H115.066V83.02ZM113.941 83.02H112.591V84.37H113.941V83.02ZM108.361 83.02L107.194 82.3411L106.013 84.37H108.361V83.02ZM109.081 76.435V75.085H107.731V76.435H109.081ZM111.871 76.435H113.221V75.085H111.871V76.435ZM111.871 83.02V84.37H113.221V83.02H111.871ZM113.941 73.15H107.011V75.85H113.941V73.15ZM105.661 74.5V79.465H108.361V74.5H105.661ZM105.661 79.465C105.661 80.8965 105.393 81.7497 105.046 82.2296L107.235 83.8104C108.059 82.6703 108.361 81.1535 108.361 79.465H105.661ZM106.141 81.67H105.121V84.37H106.141V81.67ZM103.771 83.02V87.01H106.471V83.02H103.771ZM105.121 88.36H107.191V85.66H105.121V88.36ZM108.541 87.01V85H105.841V87.01H108.541ZM107.191 86.35H112.996V83.65H107.191V86.35ZM111.646 85V87.01H114.346V85H111.646ZM112.996 88.36H115.066V85.66H112.996V88.36ZM116.416 87.01V83.02H113.716V87.01H116.416ZM115.066 81.67H113.941V84.37H115.066V81.67ZM115.291 83.02V74.5H112.591V83.02H115.291ZM109.528 83.6989C110.179 82.5789 110.431 81.1188 110.431 79.495H107.731C107.731 80.9012 107.502 81.8111 107.194 82.3411L109.528 83.6989ZM110.431 79.495V76.435H107.731V79.495H110.431ZM109.081 77.785H111.871V75.085H109.081V77.785ZM110.521 76.435V83.02H113.221V76.435H110.521ZM111.871 81.67H108.361V84.37H111.871V81.67ZM118.847 74.5V73.15H117.497V74.5H118.847ZM118.847 85H117.497V86.35H118.847V85ZM120.917 85V86.35H122.267V85H120.917ZM120.917 76.48V75.13H119.567V76.48H120.917ZM124.622 76.48H125.972V75.13H124.622V76.48ZM124.622 85H123.272V86.35H124.622V85ZM126.692 85V86.35H128.042V85H126.692ZM126.692 74.5H128.042V73.15H126.692V74.5ZM117.497 74.5V85H120.197V74.5H117.497ZM118.847 86.35H120.917V83.65H118.847V86.35ZM122.267 85V76.48H119.567V85H122.267ZM120.917 77.83H124.622V75.13H120.917V77.83ZM123.272 76.48V85H125.972V76.48H123.272ZM124.622 86.35H126.692V83.65H124.622V86.35ZM128.042 85V74.5H125.342V85H128.042ZM126.692 73.15H118.847V75.85H126.692V73.15ZM131.047 74.5V73.15H129.697V74.5H131.047ZM131.047 85H129.697V86.35H131.047V85ZM133.117 85V86.35H134.467V85H133.117ZM133.117 81.55V80.2H131.767V81.55H133.117ZM137.512 80.53L138.456 81.495L137.512 80.53ZM137.512 75.52L136.568 76.485L136.568 76.485L137.512 75.52ZM133.117 79.615H131.767V80.965H133.117V79.615ZM133.117 76.435V75.085H131.767V76.435H133.117ZM129.697 74.5V85H132.397V74.5H129.697ZM131.047 86.35H133.117V83.65H131.047V86.35ZM134.467 85V81.55H131.767V85H134.467ZM133.117 82.9H134.962V80.2H133.117V82.9ZM134.962 82.9C136.308 82.9 137.505 82.4248 138.456 81.495L136.568 79.565C136.138 79.9852 135.625 80.2 134.962 80.2V82.9ZM138.456 81.495C139.415 80.5567 139.897 79.3646 139.897 78.025H137.197C137.197 78.6654 136.988 79.1533 136.568 79.565L138.456 81.495ZM139.897 78.025C139.897 76.6854 139.415 75.4933 138.456 74.555L136.568 76.485C136.988 76.8967 137.197 77.3846 137.197 78.025H139.897ZM138.456 74.555C137.505 73.6252 136.308 73.15 134.962 73.15V75.85C135.625 75.85 136.138 76.0648 136.568 76.485L138.456 74.555ZM134.962 73.15H131.047V75.85H134.962V73.15ZM134.467 79.615V76.435H131.767V79.615H134.467ZM133.117 77.785H134.962V75.085H133.117V77.785ZM134.962 77.785C135.01 77.785 135.038 77.7938 135.052 77.7997C135.066 77.8056 135.076 77.8129 135.085 77.8219C135.098 77.8354 135.142 77.8899 135.142 78.025H137.842C137.842 76.4165 136.643 75.085 134.962 75.085V77.785ZM135.142 78.025C135.142 78.1484 135.1 78.2061 135.082 78.2257C135.071 78.237 135.059 78.245 135.045 78.2511C135.032 78.2569 135.006 78.265 134.962 78.265V80.965C136.652 80.965 137.842 79.6099 137.842 78.025H135.142ZM134.962 78.265H133.117V80.965H134.962V78.265ZM150.225 85V86.35H152.13L151.499 84.5524L150.225 85ZM146.535 74.5L147.809 74.0524L147.492 73.15H146.535V74.5ZM143.97 74.5V73.15H143.012L142.696 74.054L143.97 74.5ZM140.295 85L139.021 84.554L138.392 86.35H140.295V85ZM142.53 85V86.35H143.503L143.811 85.4269L142.53 85ZM143.16 83.11V81.76H142.187L141.879 82.6831L143.16 83.11ZM147.345 83.11L148.626 82.6831L148.318 81.76H147.345V83.11ZM147.975 85L146.694 85.4269L147.002 86.35H147.975V85ZM145.26 76.885L146.54 76.4554L145.26 72.6426L143.98 76.4554L145.26 76.885ZM146.7 81.175V82.525H148.577L147.98 80.7454L146.7 81.175ZM143.82 81.175L142.54 80.7454L141.943 82.525H143.82V81.175ZM151.499 84.5524L147.809 74.0524L145.261 74.9476L148.951 85.4476L151.499 84.5524ZM146.535 73.15H143.97V75.85H146.535V73.15ZM142.696 74.054L139.021 84.554L141.569 85.446L145.244 74.946L142.696 74.054ZM140.295 86.35H142.53V83.65H140.295V86.35ZM143.811 85.4269L144.441 83.5369L141.879 82.6831L141.249 84.5731L143.811 85.4269ZM143.16 84.46H147.345V81.76H143.16V84.46ZM146.064 83.5369L146.694 85.4269L149.256 84.5731L148.626 82.6831L146.064 83.5369ZM147.975 86.35H150.225V83.65H147.975V86.35ZM143.98 77.3146L145.42 81.6046L147.98 80.7454L146.54 76.4554L143.98 77.3146ZM146.7 79.825H143.82V82.525H146.7V79.825ZM145.1 81.6046L146.54 77.3146L143.98 76.4554L142.54 80.7454L145.1 81.6046ZM159.99 79.555L159.149 78.4985L157.593 79.7364L159.318 80.7259L159.99 79.555ZM160.05 75.34L159.145 76.3422L159.145 76.3422L160.05 75.34ZM153.645 74.5V73.15H152.295V74.5H153.645ZM153.645 85H152.295V86.35H153.645V85ZM155.715 78.745H154.365V80.095H155.715V78.745ZM155.715 76.435V75.085H154.365V76.435H155.715ZM155.715 83.065H154.365V84.415H155.715V83.065ZM155.715 80.59V79.24H154.365V80.59H155.715ZM160.83 80.6115C161.827 79.8186 162.33 78.7171 162.33 77.455H159.63C159.63 77.9329 159.472 78.2414 159.149 78.4985L160.83 80.6115ZM162.33 77.455C162.33 76.223 161.856 75.1521 160.954 74.3378L159.145 76.3422C159.473 76.6379 159.63 76.977 159.63 77.455H162.33ZM160.954 74.3378C160.077 73.5462 158.999 73.15 157.785 73.15V75.85C158.37 75.85 158.792 76.0238 159.145 76.3422L160.954 74.3378ZM157.785 73.15H153.645V75.85H157.785V73.15ZM152.295 74.5V85H154.995V74.5H152.295ZM153.645 86.35H158.1V83.65H153.645V86.35ZM158.1 86.35C159.318 86.35 160.43 85.9607 161.33 85.1461L159.519 83.1439C159.159 83.4693 158.711 83.65 158.1 83.65V86.35ZM161.33 85.1461C162.259 84.3059 162.72 83.1997 162.72 81.955H160.02C160.02 82.4803 159.85 82.8441 159.519 83.1439L161.33 85.1461ZM162.72 81.955C162.72 80.4132 162.002 79.1531 160.661 78.3841L159.318 80.7259C159.807 81.0069 160.02 81.3668 160.02 81.955H162.72ZM157.785 77.785C157.779 77.785 157.755 77.7836 157.72 77.7692C157.686 77.7548 157.651 77.7318 157.622 77.7018C157.56 77.6372 157.56 77.5817 157.56 77.59H160.26C160.26 76.232 159.237 75.085 157.785 75.085V77.785ZM157.56 77.59C157.56 77.5905 157.56 77.5762 157.569 77.5523C157.579 77.5286 157.595 77.5005 157.621 77.4737C157.68 77.4135 157.75 77.395 157.785 77.395V80.095C159.21 80.095 160.26 78.9602 160.26 77.59H157.56ZM157.785 77.395H155.715V80.095H157.785V77.395ZM157.065 78.745V76.435H154.365V78.745H157.065ZM155.715 77.785H157.785V75.085H155.715V77.785ZM157.065 83.065V80.59H154.365V83.065H157.065ZM155.715 81.94H158.1V79.24H155.715V81.94ZM158.1 81.94C158.107 81.94 158.096 81.941 158.075 81.9322C158.053 81.9234 158.03 81.9083 158.009 81.887C157.988 81.8657 157.975 81.8441 157.969 81.828C157.962 81.8118 157.965 81.8074 157.965 81.82H160.665C160.665 80.3915 159.572 79.24 158.1 79.24V81.94ZM157.965 81.82C157.965 81.8399 157.961 81.8402 157.967 81.8267C157.972 81.8131 157.983 81.792 158.005 81.7703C158.026 81.7484 158.05 81.7326 158.073 81.7233C158.096 81.714 158.107 81.715 158.1 81.715V84.415C159.583 84.415 160.665 83.2526 160.665 81.82H157.965ZM158.1 81.715H155.715V84.415H158.1V81.715ZM173.272 85V86.35H174.622V85H173.272ZM173.272 74.5H174.622V73.15H173.272V74.5ZM171.697 74.5V73.15H170.994L170.591 73.7251L171.697 74.5ZM167.197 80.92H165.847V85.198L168.302 81.6949L167.197 80.92ZM167.197 74.5H168.547V73.15H167.197V74.5ZM165.127 74.5V73.15H163.777V74.5H165.127ZM165.127 85H163.777V86.35H165.127V85ZM166.702 85V86.35H167.403L167.806 85.7761L166.702 85ZM171.202 78.595H172.552V74.3252L170.097 77.8189L171.202 78.595ZM171.202 85H169.852V86.35H171.202V85ZM174.622 85V74.5H171.922V85H174.622ZM173.272 73.15H171.697V75.85H173.272V73.15ZM170.591 73.7251L166.091 80.1451L168.302 81.6949L172.802 75.2749L170.591 73.7251ZM168.547 80.92V74.5H165.847V80.92H168.547ZM167.197 73.15H165.127V75.85H167.197V73.15ZM163.777 74.5V85H166.477V74.5H163.777ZM165.127 86.35H166.702V83.65H165.127V86.35ZM167.806 85.7761L172.306 79.3711L170.097 77.8189L165.597 84.2239L167.806 85.7761ZM169.852 78.595V85H172.552V78.595H169.852ZM171.202 86.35H173.272V83.65H171.202V86.35ZM176.839 74.5V73.15H175.489V74.5H176.839ZM176.839 76.48H175.489V77.83H176.839V76.48ZM179.659 76.48H181.009V75.13H179.659V76.48ZM179.659 85H178.309V86.35H179.659V85ZM181.729 85V86.35H183.079V85H181.729ZM181.729 76.48V75.13H180.379V76.48H181.729ZM184.564 76.48V77.83H185.914V76.48H184.564ZM184.564 74.5H185.914V73.15H184.564V74.5ZM175.489 74.5V76.48H178.189V74.5H175.489ZM176.839 77.83H179.659V75.13H176.839V77.83ZM178.309 76.48V85H181.009V76.48H178.309ZM179.659 86.35H181.729V83.65H179.659V86.35ZM183.079 85V76.48H180.379V85H183.079ZM181.729 77.83H184.564V75.13H181.729V77.83ZM185.914 76.48V74.5H183.214V76.48H185.914ZM184.564 73.15H176.839V75.85H184.564V73.15ZM196.265 85V86.35H197.615V85H196.265ZM196.265 74.5H197.615V73.15H196.265V74.5ZM194.69 74.5V73.15H193.988L193.584 73.7251L194.69 74.5ZM190.19 80.92H188.84V85.198L191.295 81.6949L190.19 80.92ZM190.19 74.5H191.54V73.15H190.19V74.5ZM188.12 74.5V73.15H186.77V74.5H188.12ZM188.12 85H186.77V86.35H188.12V85ZM189.695 85V86.35H190.396L190.8 85.7761L189.695 85ZM194.195 78.595H195.545V74.3252L193.09 77.8189L194.195 78.595ZM194.195 85H192.845V86.35H194.195V85ZM197.615 85V74.5H194.915V85H197.615ZM196.265 73.15H194.69V75.85H196.265V73.15ZM193.584 73.7251L189.084 80.1451L191.295 81.6949L195.795 75.2749L193.584 73.7251ZM191.54 80.92V74.5H188.84V80.92H191.54ZM190.19 73.15H188.12V75.85H190.19V73.15ZM186.77 74.5V85H189.47V74.5H186.77ZM188.12 86.35H189.695V83.65H188.12V86.35ZM190.8 85.7761L195.3 79.3711L193.09 77.8189L188.59 84.2239L190.8 85.7761ZM192.845 78.595V85H195.545V78.595H192.845ZM194.195 86.35H196.265V83.65H194.195V86.35Z" fill="white" fill-opacity="0.22"/>
<defs>
<filter id="filter0_f" x="0" y="0" width="298.8" height="156" filterUnits="userSpaceOnUse" color-interpolation-filters="sRGB">
<feFlood flood-opacity="0" result="BackgroundImageFix"/>
<feBlend mode="normal" in="SourceGraphic" in2="BackgroundImageFix" result="shape"/>
<feGaussianBlur stdDeviation="25.5" result="effect1_foregroundBlur"/>
</filter>
</defs>
</svg>
