<svg width="299" height="156" viewBox="0 0 299 156" fill="none" xmlns="http://www.w3.org/2000/svg">
<g filter="url(#filter0_f)">
<path d="M51 51H247.8V88L229.5 105H51V51Z" fill="#ED1C24" fill-opacity="0.76"/>
</g>
<path d="M17.5 60.5H260.5V96.7499L238.144 113.5H17.5V60.5Z" stroke="white" stroke-opacity="0.22"/>
<path d="M28 51H272V88L249.311 105H28V51Z" fill="#ED1C24"/>
<path d="M94.32 79.555C94.98 79.03 95.31 78.325 95.31 77.455C95.31 76.6 94.995 75.895 94.38 75.34C93.765 74.785 93.015 74.5 92.115 74.5H87.975V85H92.43C93.345 85 94.125 84.715 94.755 84.145C95.385 83.575 95.7 82.84 95.7 81.955C95.7 80.89 95.235 80.08 94.32 79.555ZM92.115 76.435C92.775 76.435 93.24 76.93 93.24 77.59C93.24 78.25 92.76 78.745 92.115 78.745H90.045V76.435H92.115ZM90.045 83.065V80.59H92.43C93.135 80.59 93.645 81.115 93.645 81.82C93.645 82.54 93.135 83.065 92.43 83.065H90.045ZM99.457 85H101.527V74.5H99.457V85ZM113.941 74.5H107.011V79.465C107.011 81.025 106.726 82.21 106.141 83.02H105.121V87.01H107.191V85H112.996V87.01H115.066V83.02H113.941V74.5ZM108.361 83.02C108.841 82.195 109.081 81.01 109.081 79.495V76.435H111.871V83.02H108.361ZM118.847 74.5V85H120.917V76.48H124.622V85H126.692V74.5H118.847ZM131.047 74.5V85H133.117V81.55H134.962C135.967 81.55 136.822 81.205 137.512 80.53C138.202 79.855 138.547 79.015 138.547 78.025C138.547 77.035 138.202 76.195 137.512 75.52C136.822 74.845 135.967 74.5 134.962 74.5H131.047ZM133.117 79.615V76.435H134.962C135.847 76.435 136.492 77.11 136.492 78.025C136.492 78.925 135.847 79.615 134.962 79.615H133.117ZM150.225 85L146.535 74.5H143.97L140.295 85H142.53L143.16 83.11H147.345L147.975 85H150.225ZM145.26 76.885L146.7 81.175H143.82L145.26 76.885ZM159.99 79.555C160.65 79.03 160.98 78.325 160.98 77.455C160.98 76.6 160.665 75.895 160.05 75.34C159.435 74.785 158.685 74.5 157.785 74.5H153.645V85H158.1C159.015 85 159.795 84.715 160.425 84.145C161.055 83.575 161.37 82.84 161.37 81.955C161.37 80.89 160.905 80.08 159.99 79.555ZM157.785 76.435C158.445 76.435 158.91 76.93 158.91 77.59C158.91 78.25 158.43 78.745 157.785 78.745H155.715V76.435H157.785ZM155.715 83.065V80.59H158.1C158.805 80.59 159.315 81.115 159.315 81.82C159.315 82.54 158.805 83.065 158.1 83.065H155.715ZM173.272 85V74.5H171.697L167.197 80.92V74.5H165.127V85H166.702L171.202 78.595V85H173.272ZM176.839 74.5V76.48H179.659V85H181.729V76.48H184.564V74.5H176.839ZM196.265 85V74.5H194.69L190.19 80.92V74.5H188.12V85H189.695L194.195 78.595V85H196.265Z" fill="white"/>
<circle cx="243.003" cy="91.0032" r="21.0488" transform="rotate(38.8657 243.003 91.0032)" stroke="white" stroke-opacity="0.44" stroke-width="2" stroke-linecap="round" stroke-dasharray="40 40"/>
<defs>
<filter id="filter0_f" x="0" y="0" width="298.8" height="156" filterUnits="userSpaceOnUse" color-interpolation-filters="sRGB">
<feFlood flood-opacity="0" result="BackgroundImageFix"/>
<feBlend mode="normal" in="SourceGraphic" in2="BackgroundImageFix" result="shape"/>
<feGaussianBlur stdDeviation="25.5" result="effect1_foregroundBlur"/>
</filter>
</defs>
</svg>
