<svg width="23" height="23" viewBox="0 0 23 23" fill="none" xmlns="http://www.w3.org/2000/svg">
<g clip-path="url(#clip0)">
<path d="M0.554475 18.3413L4.70587 16.9238C4.70587 16.9238 4.87928 16.8415 4.94557 16.7753C5.39658 16.3242 6.96779 14.753 8.9982 12.7227C9.07894 12.667 9.02464 12.5877 8.99761 12.5607C6.16505 9.72797 3.4017 6.96469 1.50931 5.07237C-0.286248 3.27689 0.432913 1.62516 2.12985 3.3221C2.57446 3.76664 3.4925 3.78049 4.62885 3.54012C4.88032 3.48702 5.12947 3.42921 5.39316 3.36806C8.03473 2.75556 11.0088 2.06709 15.4661 6.11399C15.4906 6.13611 15.5536 6.20359 15.6502 6.10698C16.5149 5.24243 17.1815 4.53958 17.7986 3.92231C17.9344 3.78645 17.8271 3.69334 17.8271 3.69334L17.5024 3.36858C17.0936 2.95988 17.1888 2.42768 17.7139 2.18589L22.2532 0.0957437C22.7783 -0.145889 23.0102 0.0858371 22.7685 0.610889L20.6783 5.15029C20.4365 5.67549 19.9044 5.77046 19.4956 5.36175L19.2352 5.10135C19.2352 5.10135 19.0919 4.91551 18.9419 5.0656C18.3262 5.6813 17.6866 6.32098 16.8236 7.18383C16.715 7.27999 16.7278 7.36259 16.7476 7.38412C20.9236 11.9375 20.1493 15.4401 19.521 18.2794L19.4916 18.4126C19.2169 19.6569 19.3294 20.6373 19.9251 21.2329C21.2156 22.5235 20.7548 24.3178 17.9554 21.5184C16.0231 19.5862 13.1827 16.746 10.2879 13.851C10.266 13.829 10.2214 13.798 10.1358 13.8716C8.0707 15.9366 6.48393 17.5235 6.06971 17.9377C6.01586 17.9914 5.94346 18.1499 5.94346 18.1499L4.52301 22.3099C4.33627 22.8568 3.99729 22.8696 3.76959 22.3383L3.21087 21.0335C2.98324 20.5019 2.36232 19.8809 1.83109 19.6534L0.52602 19.0947C-0.00536323 18.8671 0.00752425 18.528 0.554475 18.3413ZM5.80402 5.14008C5.54347 5.20049 5.27405 5.26283 5.00538 5.31959C4.68688 5.38708 4.38097 5.43497 4.08786 5.46395C4.08786 5.46395 8.59881 9.97497 10.1024 11.4786C10.1819 11.5582 10.2602 11.4607 10.2602 11.4607C11.5955 10.1254 12.8585 8.86229 14.1769 7.54404C14.2406 7.47127 14.2075 7.42702 14.1849 7.40669C10.4725 4.0584 8.20016 4.58457 5.80402 5.14008ZM17.5685 18.9448C17.5959 18.6546 17.6433 18.347 17.7154 18.0203L17.745 17.8864C18.3321 15.233 18.9379 12.4942 15.4605 8.67198C15.4407 8.65023 15.3717 8.62521 15.3116 8.69589C13.9921 10.0154 12.7034 11.304 11.3666 12.6409C11.3666 12.6409 11.3273 12.7037 11.387 12.7633C12.9501 14.3268 17.5685 18.9448 17.5685 18.9448Z" fill="#676767"/>
</g>
<defs>
<clipPath id="clip0">
<rect width="23" height="23" fill="white" transform="matrix(-1 0 0 1 23 0)"/>
</clipPath>
</defs>
</svg>
