<svg width="23" height="23" viewBox="0 0 23 23" fill="none" xmlns="http://www.w3.org/2000/svg">
<g clip-path="url(#clip0)">
<path d="M16.6098 24.9627L15.6549 21.3879L13.3958 21.9913L14.3508 25.5661C14.4341 25.8781 14.636 26.1268 14.8949 26.2765C15.1539 26.4263 15.4699 26.4772 15.782 26.3939C16.406 26.2271 16.7765 25.5867 16.6098 24.9627Z" fill="#676767"/>
<path d="M10.6737 9.44866L11.8021 9.22642L8.23914 -3.11259C8.19826 -3.2532 8.054 -3.3384 7.91044 -3.30453C7.76223 -3.26884 7.67104 -3.12024 7.70611 -2.97245L10.6737 9.44866Z" fill="#676767"/>
<path d="M12.815 12.7008L11.5631 13.135L12.0787 15.2921C12.2947 15.2016 12.5127 15.1149 12.7436 15.0533C12.9797 14.9902 13.2173 14.9501 13.455 14.9196L12.815 12.7008Z" fill="#676767"/>
<path d="M17.4075 18.9868C17.5004 18.7609 17.4833 18.5047 17.3599 18.2937C17.0267 17.7219 16.5529 17.2579 15.9968 16.9362C15.1657 16.4556 14.1516 16.292 13.1506 16.5599C11.4792 17.0062 10.375 18.5125 10.3665 20.1616C10.3649 20.4061 10.4784 20.6371 10.672 20.7859C10.7 20.8074 10.7293 20.8269 10.7596 20.8445C10.9375 20.9474 11.1509 20.9767 11.3526 20.9229L16.8849 19.4451C17.1209 19.382 17.314 19.2123 17.4075 18.9868Z" fill="#676767"/>
<path d="M-2.71317 13.8035C-3.33712 13.9702 -3.70758 14.6107 -3.54096 15.2348C-3.45754 15.5468 -3.25574 15.7954 -2.99681 15.9452C-2.73784 16.095 -2.42171 16.1459 -2.10963 16.0626L1.46507 15.1077L0.861642 12.8486L-2.71317 13.8035Z" fill="#676767"/>
<path d="M26.1219 7.23138C26.0858 7.08385 25.9362 6.99293 25.7883 7.02968L7.56143 11.5083C7.65331 11.7294 7.73721 11.9554 7.79959 12.1912C7.86128 12.422 7.89499 12.6543 7.92478 12.887L25.9326 7.56155C26.0725 7.52033 26.1574 7.37511 26.1219 7.23138Z" fill="#676767"/>
<path d="M4.54808 10.3252C3.99193 10.0035 3.35343 9.8242 2.69167 9.82048C2.44725 9.81882 2.21655 9.93173 2.0671 10.1248C1.91822 10.3184 1.86748 10.5704 1.93057 10.8065L3.40824 16.3387C3.46222 16.5404 3.594 16.7108 3.77202 16.8137C3.80229 16.8312 3.83374 16.8468 3.86638 16.8604C4.09194 16.954 4.34871 16.9372 4.5599 16.8139C5.98513 15.9842 6.74006 14.2759 6.29354 12.6046C6.02665 11.6034 5.37903 10.8058 4.54808 10.3252Z" fill="#676767"/>
</g>
<defs>
<clipPath id="clip0">
<rect width="23" height="23" fill="white"/>
</clipPath>
</defs>
</svg>
