<svg width="23" height="23" viewBox="0 0 23 23" fill="none" xmlns="http://www.w3.org/2000/svg">
<g clip-path="url(#clip0)">
<path d="M11.0235 4.34388L13.1652 6.48551C13.0696 6.65649 12.9958 6.83628 12.9439 7.02116L9.91462 7.02116C9.5425 7.02104 9.24086 7.32268 9.24086 7.69492C9.24074 8.06703 9.54238 8.36867 9.91462 8.36867L12.9438 8.3688C12.9957 8.55368 13.0697 8.73347 13.1652 8.90433L3.36814 18.7013C3.10497 18.9645 3.10509 19.3912 3.36814 19.6543C3.63132 19.9174 4.0579 19.9174 4.32108 19.6543L14.1181 9.85726C14.2891 9.95281 14.4689 10.0269 14.6537 10.0787L14.6539 13.1082C14.6537 13.4803 14.9554 13.7819 15.3276 13.7819C15.6997 13.782 16.0014 13.4804 16.0014 13.1082L16.0015 10.0787C16.1864 10.0269 16.3662 9.95305 16.537 9.85739L18.6788 11.9991C18.942 12.2623 19.3685 12.2623 19.6317 11.9991C19.8949 11.736 19.8949 11.3094 19.6317 11.0462L17.49 8.90445C17.5855 8.73347 17.6593 8.55368 17.7113 8.36892L20.7407 8.3688C21.113 8.3688 21.4146 8.06716 21.4145 7.69504C21.4145 7.50892 21.3391 7.34042 21.2172 7.21857C21.0952 7.0966 20.9267 7.02116 20.7406 7.02116L17.7113 7.02116C17.6595 6.83628 17.5855 6.65636 17.4898 6.48551L19.6316 4.34375C19.8948 4.08058 19.8948 3.65399 19.6316 3.39082C19.3685 3.12777 18.9418 3.12764 18.6787 3.39082L16.5369 5.53257C16.3661 5.4369 16.1863 5.36308 16.0014 5.31121L16.0014 2.28191C16.0014 2.09579 15.9259 1.92729 15.8041 1.80544C15.6821 1.68347 15.5136 1.60803 15.3276 1.60816C14.9555 1.60803 14.6539 1.90967 14.6539 2.28191L14.6539 5.31121C14.469 5.36308 14.2891 5.43703 14.1181 5.53257L11.9765 3.39094C11.7133 3.12777 11.2867 3.12777 11.0235 3.39094C10.7604 3.65412 10.7604 4.08071 11.0235 4.34388ZM16.1269 8.49437C15.6862 8.9351 14.969 8.9351 14.5282 8.49424C14.0876 8.05363 14.0874 7.33682 14.5278 6.89596C14.5279 6.89584 14.5282 6.89584 14.5283 6.89572C14.5284 6.89559 14.5284 6.89534 14.5285 6.89522C14.9694 6.45486 15.6863 6.45511 16.1268 6.89559C16.5677 7.33645 16.5677 8.05363 16.1269 8.49437Z" fill="#676767"/>
</g>
<defs>
<clipPath id="clip0">
<rect width="23" height="23" fill="white" transform="translate(0 23) rotate(-90)"/>
</clipPath>
</defs>
</svg>
