<!-- Generated by IcoMoon.io -->
<svg version="1.1" xmlns="http://www.w3.org/2000/svg" width="32" height="32" viewBox="0 0 32 32">
<title>map</title>
<path fill="#3e4f59" d="M15.993 0c-7.071 0-12.827 5.756-12.827 12.827 0 0.805 0.074 1.617 0.228 2.408 0.007 0.047 0.034 0.188 0.087 0.429 0.195 0.865 0.483 1.717 0.859 2.529 1.382 3.254 4.421 8.252 11.089 13.605 0.168 0.134 0.369 0.201 0.57 0.201s0.403-0.067 0.57-0.201c6.662-5.353 9.707-10.351 11.089-13.605 0.376-0.812 0.664-1.657 0.859-2.529 0.054-0.241 0.081-0.382 0.087-0.429 0.148-0.792 0.228-1.603 0.228-2.408-0.013-7.071-5.769-12.827-12.84-12.827zM26.808 14.92c0 0.013-0.007 0.027-0.007 0.040-0.007 0.034-0.027 0.134-0.060 0.289 0 0.007 0 0.007 0 0.013-0.168 0.751-0.416 1.483-0.745 2.187-0.007 0.007-0.007 0.020-0.013 0.027-1.255 2.972-4.005 7.507-9.989 12.451-5.984-4.944-8.735-9.479-9.989-12.451-0.007-0.007-0.007-0.020-0.013-0.027-0.322-0.698-0.57-1.436-0.745-2.187 0-0.007 0-0.007 0-0.013-0.040-0.154-0.054-0.255-0.060-0.289 0-0.013-0.007-0.027-0.007-0.047-0.134-0.691-0.201-1.389-0.201-2.093 0-6.071 4.944-11.015 11.015-11.015s11.015 4.944 11.015 11.015c0 0.711-0.067 1.415-0.201 2.1z"></path>
<path fill="#3e4f59" stroke="#3e4f59" stroke-linejoin="miter" stroke-linecap="butt" stroke-miterlimit="4" stroke-width="0.5333" d="M16 7.733c-3.086 0-5.6 2.514-5.6 5.6s2.514 5.6 5.6 5.6c3.086 0 5.6-2.514 5.6-5.6s-2.514-5.6-5.6-5.6zM16 17.214c-2.141 0-3.88-1.743-3.88-3.881s1.743-3.88 3.88-3.88 3.881 1.743 3.881 3.88c0 2.137-1.739 3.881-3.881 3.881z"></path>
</svg>
