<svg width="16" height="16" viewBox="0 0 16 16" fill="none" xmlns="http://www.w3.org/2000/svg">
<path d="M15.9662 12.3971C15.921 12.2607 15.6331 12.0598 15.1027 11.7949C14.959 11.7114 14.7542 11.5979 14.4893 11.454C14.2242 11.31 13.9835 11.1774 13.7677 11.0561C13.5515 10.9349 13.349 10.8175 13.1597 10.7041C13.1295 10.6813 13.0348 10.6151 12.8757 10.505C12.7165 10.3953 12.5822 10.3138 12.4721 10.2607C12.3623 10.2079 12.2543 10.1813 12.1482 10.1813C11.9967 10.1813 11.8075 10.2893 11.5803 10.505C11.3532 10.7211 11.1448 10.9558 10.9555 11.2098C10.7661 11.4637 10.5653 11.6983 10.3534 11.9142C10.1412 12.1302 9.96684 12.2382 9.83064 12.2382C9.76226 12.2382 9.67701 12.2191 9.57484 12.1815C9.47271 12.1436 9.39502 12.1112 9.34169 12.085C9.28883 12.0583 9.19812 12.0055 9.06925 11.9257C8.94013 11.8461 8.86833 11.8025 8.8532 11.7949C7.81539 11.219 6.92531 10.5599 6.18282 9.81776C5.44057 9.07515 4.78138 8.18516 4.20566 7.14722C4.1981 7.13206 4.15444 7.06006 4.07495 6.93134C3.99535 6.8025 3.94229 6.71172 3.91579 6.65854C3.88928 6.60557 3.85708 6.52787 3.81927 6.42562C3.78146 6.32337 3.76247 6.2382 3.76247 6.16994C3.76247 6.03366 3.87045 5.85933 4.08638 5.64719C4.30226 5.43517 4.53716 5.23433 4.79086 5.04508C5.04475 4.85583 5.27942 4.64743 5.49538 4.42024C5.71126 4.19294 5.8192 4.00364 5.8192 3.85216C5.8192 3.74617 5.79269 3.63811 5.73972 3.5283C5.6867 3.41825 5.60527 3.28396 5.49538 3.12479C5.38545 2.96571 5.31918 2.8711 5.29641 2.84065C5.1829 2.6514 5.0656 2.44877 4.94425 2.23285C4.8229 2.01697 4.69044 1.77633 4.54644 1.51121C4.40256 1.24622 4.289 1.0416 4.20558 0.897676C3.94058 0.367484 3.73987 0.079483 3.60347 0.0341892C3.55041 0.0114627 3.47081 0 3.36486 0C3.1602 0 2.89321 0.0378111 2.5637 0.113672C2.23407 0.189414 1.97468 0.268857 1.78527 0.35232C1.40648 0.511326 1.00501 0.973418 0.580726 1.73844C0.194376 2.4504 0.0012207 3.15508 0.0012207 3.85196C0.0012207 4.05634 0.0144745 4.25519 0.0409821 4.44854C0.0674897 4.6417 0.114853 4.85953 0.183112 5.102C0.251252 5.34439 0.306217 5.52445 0.34777 5.6417C0.389362 5.75903 0.467014 5.96922 0.580686 6.27235C0.694199 6.5754 0.762458 6.76091 0.785185 6.82909C1.0503 7.57154 1.36469 8.23435 1.72827 8.81772C2.32649 9.78735 3.14285 10.7894 4.17688 11.8235C5.21096 12.8576 6.21283 13.6739 7.18255 14.2724C7.76584 14.6359 8.42888 14.9502 9.17122 15.2156C9.23944 15.2382 9.42495 15.3063 9.72788 15.4202C10.0309 15.5338 10.2412 15.6114 10.3585 15.6531C10.4759 15.6948 10.656 15.7498 10.8982 15.8181C11.1409 15.8863 11.3585 15.9337 11.5517 15.9604C11.745 15.9865 11.9438 16 12.1483 16C12.8451 16 13.5498 15.8068 14.2619 15.4205C15.0268 14.9963 15.4888 14.5948 15.6479 14.2157C15.7316 14.0265 15.8108 13.767 15.8866 13.4374C15.9625 13.1079 16.0003 12.841 16.0003 12.6364C16.0005 12.53 15.9891 12.4506 15.9662 12.3971Z" fill="#676767"/>
</svg>
