<svg width="23" height="23" viewBox="0 0 23 23" fill="none" xmlns="http://www.w3.org/2000/svg">
<g clip-path="url(#clip0)">
<path d="M1.44831 20.1034C0.648439 20.1034 1.54553e-05 20.7519 1.53854e-05 21.5517C1.53155e-05 22.3516 0.648439 23 1.44831 23C2.24818 23 2.89661 22.3516 2.89661 21.5517C2.89661 20.7519 2.24818 20.1034 1.44831 20.1034Z" fill="#676767"/>
<path d="M3.00969 19.127L3.45464 19.572C4.96815 21.0856 7.34928 21.1671 8.76266 19.7538C9.40172 19.1148 9.73405 18.2777 9.76765 17.4125L11.5502 19.1951L12.4402 18.3052L4.72144 10.5864L3.83149 11.4764L7.24587 14.8907L3.00969 19.127ZM7.87271 18.8638C7.44254 19.294 6.86911 19.5058 6.2756 19.5058C5.78699 19.5058 5.2848 19.3621 4.83828 19.0784L8.08726 15.8294C8.71562 16.8183 8.65696 18.0795 7.87271 18.8638Z" fill="#676767"/>
<path d="M10.5443 14.3682L21.0188 3.89373C22.0744 2.83807 22.7681 1.47478 23 -5.24521e-05C21.5252 0.231834 20.1619 0.925518 19.1062 1.98118L8.63178 12.4556L10.5443 14.3682Z" fill="#676767"/>
</g>
<defs>
<clipPath id="clip0">
<rect width="23" height="23" fill="white" transform="translate(23 23) rotate(-180)"/>
</clipPath>
</defs>
</svg>
